<svg width="269" height="119" viewBox="0 0 269 119" fill="none" xmlns="http://www.w3.org/2000/svg">
<path d="M88.7848 106.471V94.5043H88.7167L83.2299 106.471H82.9152L77.4453 94.5043H77.3943V106.471H77.0115V94.0705H77.692L83.0853 105.91L88.4786 94.0705H89.1591V106.471H88.7763H88.7848Z" fill="white" stroke="white" stroke-width="0.85" stroke-miterlimit="10" stroke-linecap="square"/>
<path d="M82.6259 106.922L77.8451 96.4435V106.922H76.5691V93.6282H77.9812L83.0938 104.838L88.1978 93.6282H89.6185V106.922H88.3424V96.401L83.5191 106.922H82.6259Z" fill="white" stroke="white" stroke-width="0.85" stroke-miterlimit="10" stroke-linecap="square"/>
<path d="M106.947 106.471L105.475 102.916H98.2698L96.7471 106.471H96.3303L101.707 94.0705H102.2L107.372 106.471H106.955H106.947ZM101.936 94.3171L98.4144 102.584H105.356L101.936 94.3171Z" fill="white" stroke="white" stroke-width="0.85" stroke-miterlimit="10" stroke-linecap="square"/>
<path d="M108.036 106.922H106.649L105.177 103.367H98.5675L97.0448 106.922H95.6497L101.417 93.6282H102.498L108.036 106.922ZM99.0864 102.142H104.684L101.928 95.4739L99.0864 102.142Z" fill="white" stroke="white" stroke-width="0.85" stroke-miterlimit="10" stroke-linecap="square"/>
<path d="M123.858 106.471L114.96 94.5553H114.909V106.471H114.526V94.0705H115.071L123.986 105.97H124.037V94.0705H124.42V106.471H123.858Z" fill="white" stroke="white" stroke-width="0.85" stroke-miterlimit="10" stroke-linecap="square"/>
<path d="M124.87 106.922H123.637L115.351 95.8311V106.922H114.075V93.6282H115.292L123.586 104.702V93.6282H124.87V106.922Z" fill="white" stroke="white" stroke-width="0.85" stroke-miterlimit="10" stroke-linecap="square"/>
<path d="M142.301 106.471L140.829 102.916H133.624L132.101 106.471H131.684L137.061 94.0705H137.554L142.726 106.471H142.309H142.301ZM137.29 94.3171L133.768 102.584H140.71L137.29 94.3171Z" fill="white" stroke="white" stroke-width="0.85" stroke-miterlimit="10" stroke-linecap="square"/>
<path d="M143.39 106.922H142.003L140.531 103.367H133.922L132.399 106.922H131.004L136.771 93.6282H137.852L143.39 106.922ZM134.44 102.142H140.038L137.282 95.4739L134.44 102.142Z" fill="white" stroke="white" stroke-width="0.85" stroke-miterlimit="10" stroke-linecap="square"/>
<path d="M158.497 106.488C157.749 106.71 156.881 106.82 155.903 106.82C154.925 106.82 154.023 106.65 153.215 106.31C152.407 105.97 151.718 105.51 151.148 104.915C150.578 104.328 150.135 103.631 149.821 102.831C149.514 102.032 149.353 101.164 149.353 100.228C149.353 99.2928 149.514 98.4253 149.829 97.6258C150.144 96.8262 150.586 96.1373 151.156 95.5589C151.726 94.9806 152.407 94.5298 153.198 94.1981C153.989 93.8748 154.865 93.7047 155.826 93.7047C156.669 93.7047 157.434 93.8323 158.14 94.0875C158.838 94.3426 159.459 94.6914 159.995 95.1422L159.714 95.4228C159.484 95.2017 159.212 95.0061 158.897 94.836C158.591 94.6659 158.259 94.5213 157.919 94.4107C157.57 94.2916 157.221 94.2066 156.856 94.147C156.49 94.0875 156.141 94.062 155.801 94.062C154.891 94.062 154.057 94.2236 153.317 94.5468C152.568 94.87 151.93 95.3123 151.394 95.8736C150.867 96.435 150.45 97.0899 150.169 97.8384C149.88 98.5869 149.744 99.3864 149.744 100.237C149.744 101.087 149.88 101.896 150.161 102.652C150.442 103.409 150.85 104.073 151.377 104.643C151.905 105.213 152.56 105.655 153.325 105.987C154.091 106.31 154.959 106.48 155.928 106.48C156.771 106.48 157.519 106.395 158.174 106.216C158.829 106.038 159.433 105.817 159.978 105.553V100.679H156.754V100.348H160.36V105.757C159.867 106.029 159.246 106.267 158.497 106.497V106.488Z" fill="white" stroke="white" stroke-width="0.85" stroke-miterlimit="10" stroke-linecap="square"/>
<path d="M155.903 107.271C154.865 107.271 153.904 107.092 153.045 106.727C152.185 106.369 151.437 105.868 150.824 105.23C150.212 104.6 149.736 103.852 149.404 102.993C149.072 102.142 148.91 101.215 148.91 100.228C148.91 99.2418 149.081 98.3147 149.412 97.4641C149.744 96.6136 150.229 95.8651 150.833 95.2442C151.437 94.6233 152.177 94.1385 153.019 93.7898C153.861 93.4411 154.806 93.2625 155.818 93.2625C156.711 93.2625 157.536 93.3985 158.285 93.6792C159.033 93.9514 159.697 94.3341 160.275 94.8019L160.65 95.1166L159.714 96.0522L159.399 95.7546C159.195 95.5589 158.948 95.3888 158.676 95.2357C158.387 95.0826 158.081 94.9465 157.766 94.836C157.443 94.7254 157.111 94.6488 156.779 94.5893C156.439 94.5383 156.116 94.5042 155.801 94.5042C154.959 94.5042 154.176 94.6573 153.487 94.9465C152.798 95.2442 152.203 95.6525 151.718 96.1628C151.233 96.6816 150.85 97.2855 150.586 97.9745C150.323 98.6634 150.186 99.4204 150.186 100.211C150.186 101.002 150.323 101.768 150.578 102.474C150.833 103.171 151.216 103.792 151.701 104.311C152.185 104.83 152.789 105.247 153.496 105.544C154.202 105.842 155.018 105.995 155.92 105.995C156.72 105.995 157.434 105.91 158.047 105.748C158.574 105.604 159.067 105.434 159.518 105.23V101.087H156.294V99.8627H160.794V105.987L160.565 106.114C160.046 106.395 159.391 106.659 158.617 106.888C157.825 107.118 156.915 107.237 155.894 107.237L155.903 107.271Z" fill="white" stroke="white" stroke-width="0.85" stroke-miterlimit="10" stroke-linecap="square"/>
<path d="M168.944 106.471V94.0705H176.183V94.4192H169.335V99.8712H175.783V100.22H169.335V106.123H176.464V106.471H168.944Z" fill="white" stroke="white" stroke-width="0.85" stroke-miterlimit="10" stroke-linecap="square"/>
<path d="M176.906 106.922H168.501V93.6282H176.625V94.87H169.777V99.4204H176.226V100.662H169.777V105.68H176.906V106.922Z" fill="white" stroke="white" stroke-width="0.85" stroke-miterlimit="10" stroke-linecap="square"/>
<path d="M191.206 106.471L187.454 100.22H184.545V106.471H184.162V94.0705H187.599C188.058 94.0705 188.518 94.113 188.986 94.1895C189.454 94.2746 189.87 94.4277 190.236 94.6574C190.602 94.887 190.908 95.2017 191.138 95.593C191.368 95.9927 191.487 96.503 191.487 97.1324C191.487 97.7193 191.376 98.2041 191.155 98.5869C190.934 98.9696 190.644 99.2843 190.296 99.5225C189.947 99.7606 189.556 99.9307 189.13 100.041C188.705 100.143 188.288 100.203 187.88 100.203L191.648 106.471H191.214H191.206ZM191.104 97.1324C191.104 96.5966 191.002 96.1458 190.789 95.7886C190.576 95.4314 190.304 95.1507 189.955 94.9465C189.607 94.7424 189.215 94.5978 188.764 94.5213C188.314 94.4362 187.854 94.4022 187.386 94.4022H184.545V99.8882H187.574C188.722 99.8882 189.59 99.6501 190.194 99.1738C190.798 98.6974 191.095 98.017 191.095 97.1409L191.104 97.1324Z" fill="white" stroke="white" stroke-width="0.85" stroke-miterlimit="10" stroke-linecap="square"/>
<path d="M192.431 106.922H190.951L187.199 100.671H184.987V106.922H183.711V93.6282H187.591C188.067 93.6282 188.56 93.6707 189.054 93.7558C189.573 93.8493 190.049 94.0194 190.466 94.2831C190.891 94.5468 191.248 94.9125 191.521 95.3718C191.793 95.8396 191.929 96.435 191.929 97.1409C191.929 97.8044 191.801 98.3657 191.538 98.8165C191.282 99.2588 190.951 99.6245 190.542 99.8967C190.151 100.169 189.709 100.365 189.232 100.475C189.028 100.526 188.824 100.56 188.628 100.594L192.431 106.922ZM184.996 99.4459H187.582C188.62 99.4459 189.402 99.2333 189.921 98.825C190.415 98.4338 190.653 97.8809 190.653 97.1409C190.653 96.6902 190.568 96.3159 190.398 96.0267C190.228 95.7375 190.006 95.5079 189.726 95.3463C189.428 95.1677 189.079 95.0486 188.679 94.9721C188.254 94.8955 187.82 94.853 187.386 94.853H184.996V99.4459Z" fill="white" stroke="white" stroke-width="0.85" stroke-miterlimit="10" stroke-linecap="square"/>
<path d="M48.5649 73.7764V48.5067H25.0013V73.7764H10.3952V13.3281H25.0013V36.2078H48.5649V13.3281H63.1625V73.7764H48.5649Z" fill="white"/>
<path d="M139.596 13.3281H209.079V73.7764H195.765V28.5869H181.364V73.7764H168.697V28.5869H153.096V73.7764H139.596V13.3281Z" fill="white"/>
<path d="M101.29 11.729C83.6977 11.729 69.4404 25.9842 69.4404 43.5735C69.4404 61.1628 83.6977 75.418 101.29 75.418C118.882 75.418 133.139 61.1628 133.139 43.5735C133.139 25.9842 118.873 11.729 101.29 11.729ZM101.29 60.8141C91.7621 60.8141 84.038 53.0911 84.038 43.565C84.038 34.0389 91.7621 26.3159 101.29 26.3159C110.817 26.3159 118.541 34.0389 118.541 43.565C118.541 53.0911 110.817 60.8141 101.29 60.8141Z" fill="white"/>
<path d="M216.42 73.7764V13.3281H244.518V25.6185H230.516V37.0583H258.605V48.7533H230.516V61.2989H258.605V73.7594H216.428L216.42 73.7764Z" fill="white"/>
<path d="M258.596 13.3281H238.682V25.6185H258.596V13.3281Z" fill="white"/>
</svg>
